# xmcd
#
# Track frame offsets: 
#        150
#        23115
#        43750
#        69805
#        88920
#        113215
#        139710
#        162315
#        179840
#        201990
#        225420
#        245923
#
# Disc length: 3602 seconds
#
# Revision: 3
# Processed by: cddbd v1.5.2PL0 Copyright (c) Steve Scherf et al.
# Submitted via: ExactAudioCopy v1.0b3
#
DISCID=aa0e100c
DTITLE=Vu Khanh, Ngoc Lan - Nguoi Em Sau Mong
DYEAR=1992
DGENRE=
TTITLE0=Hoa rung ven song
TTITLE1=Vu Khanh - Nguoi em sau mong
TTITLE2=Ngoc Lan - Mot tinh yeu
TTITLE3=Vu Khanh - Tuong niem
TTITLE4=Chieu phi truong
TTITLE5=Ngoc Lan - Anh da thay mua Xuan chua
TTITLE6=Vu Khanh - Tam su gui ve dau
TTITLE7=Bai ca hanh ngo
TTITLE8=Ngoc Lan - Xin mot ngay mai co nhau
TTITLE9=Vu Khanh - Dan trong dem vang
TTITLE10=Con quy lay chua
TTITLE11=Ngoc Lan - Noi niem
EXTD=
EXTT0=
EXTT1=
EXTT2=
EXTT3=
EXTT4=
EXTT5=
EXTT6=
EXTT7=
EXTT8=
EXTT9=
EXTT10=
EXTT11=
PLAYORDER=
